<?xml version="1.0" encoding="utf-8"?>
<!-- Svg Vector Icons : http://www.onlinewebfonts.com/icon -->
<!DOCTYPE svg PUBLIC "-//W3C//DTD SVG 1.1//EN" "http://www.w3.org/Graphics/SVG/1.1/DTD/svg11.dtd">
<svg version="1.1" xmlns="http://www.w3.org/2000/svg" xmlns:xlink="http://www.w3.org/1999/xlink" x="0px" y="0px" viewBox="0 0 1000 1000" enable-background="new 0 0 1000 1000" xml:space="preserve">
<metadata> Svg Vector Icons : http://www.onlinewebfonts.com/icon </metadata>
<g><g transform="translate(0.000000,511.000000) scale(0.100000,-0.100000)"><path d="M2197.8,4984c-449.1-67.2-860.5-369.4-1066.1-784.9l-100.7-201.5L1018.3,199c-8.4-3416.6-4.2-3819.6,58.8-4008.4c130.1-403,440.7-722,868.8-894c155.3-62.9,482.7-71.4,2833.2-83.9c1565.6-8.4,2774.5,4.2,2946.6,29.3c516.3,71.4,885.6,323.2,1120.7,768.2l117.5,222.5l12.6,3022.1l8.4,3022.1L7620.8,3640.8L6256.6,5005l-1922.4,4.2C3280.7,5013.4,2319.5,5000.8,2197.8,4984z M5803.3,3632.4c12.6-688.4,21-738.7,130.1-978c151.1-319,461.7-617,768.1-734.5c197.3-71.4,327.4-84,940.2-84h713.6V-837.7c0-2510-8.4-2690.5-79.8-2845.8c-92.3-201.5-184.7-289.6-394.5-377.8c-130.1-54.6-524.7-62.9-2904.6-62.9c-2619.1,0-2761.9,4.2-2908.8,79.7c-193.1,96.6-281.2,193.1-365.2,394.6c-54.6,134.3-63,608.6-63,3773.4c0,3425,4.2,3630.7,79.8,3790.2c83.9,180.5,167.9,268.6,361,369.4c109.1,58.8,365.2,67.2,1914,71.4h1792.3L5803.3,3632.4z M7478,2474c-348.4-8.4-449.1,4.2-579.2,71.3c-352.6,180.5-432.3,352.6-432.3,936v428.1l713.5-713.5l717.7-709.3L7478,2474z"/><path d="M3423.4,3410c-92.4-88.1-104.9-138.5-104.9-419.7v-314.8h-314.8c-281.2,0-331.6-12.6-419.7-104.9c-125.9-125.9-134.3-268.6-16.8-415.5c79.7-100.7,109.1-109.1,419.7-109.1h331.6v-310.6c0-268.6,12.6-331.6,96.5-428.1c125.9-146.9,331.6-155.3,461.7-21c75.6,75.6,96.5,146.9,104.9,423.9l16.8,335.8h327.4c310.6,0,335.8,8.4,419.7,113.3c67.2,83.9,84,151.1,67.2,243.4c-42,209.9-159.5,272.8-512.1,272.8H3990v272.8c0,289.6-71.4,495.3-188.9,541.5C3662.7,3540.1,3524.1,3510.7,3423.4,3410z"/><path d="M2583.9,178C2525.2,123.5,2479,26.9,2479-31.8c0-58.8,46.2-155.3,104.9-209.9l100.7-104.9h2329.5h2329.6l83.9,109.1c117.5,146.9,109.1,289.6-16.8,415.5L7310.1,283H4997.4H2684.7L2583.9,178z"/><path d="M2583.9-1165.1c-125.9-125.9-134.3-268.6-16.8-415.6l83.9-109.1h2346.3h2346.3l83.9,109.1c117.5,146.9,109.1,289.6-16.8,415.6l-100.8,104.9H4997.4H2684.7L2583.9-1165.1z"/><path d="M2583.9-2508.3c-197.3-197.3-88.1-491.1,197.3-545.7c75.5-12.6,1124.9-21,2329.5-12.6l2186.8,12.6l109.2,100.7c142.7,134.3,142.7,310.6,4.2,444.9l-100.8,104.9H4997.4H2684.7L2583.9-2508.3z"/></g></g>
</svg>